<svg width="123" height="122" viewBox="0 0 123 122" fill="none" xmlns="http://www.w3.org/2000/svg">
<path d="M102.267 0H20.9401C15.5493 0.0160943 10.3841 2.16516 6.57284 5.97765C2.76162 9.79014 0.614274 14.9561 0.599976 20.3469V101.667C0.619623 107.055 2.76912 112.216 6.57957 116.025C10.39 119.834 15.5522 121.982 20.9401 122H102.267C107.653 121.98 112.814 119.832 116.623 116.023C120.432 112.214 122.58 107.053 122.6 101.667V20.3469C122.584 14.9578 120.437 9.79391 116.628 5.982C112.818 2.17008 107.656 0.0196572 102.267 0ZM91.1548 85.69C90.1249 88.1292 88.5191 90.2973 86.4594 91.9709C84.0236 93.8625 81.2507 95.2743 78.2881 96.1311C74.9681 97.1542 71.0112 97.6827 66.4309 97.6827H33.739V26.5058H68.3145C74.7038 26.5058 79.8329 27.949 83.6746 30.8828C87.5299 33.8369 89.4609 38.2139 89.4609 44.1493C89.4609 47.7268 88.5801 50.8096 86.8252 53.3437C85.0704 55.8709 82.5567 57.8426 79.2976 59.2248V59.4552C83.6475 60.3699 87.0014 62.4229 89.217 65.6345C91.4326 68.8393 92.5573 72.8775 92.5573 77.7559C92.5573 80.4999 92.0288 83.095 91.0328 85.5274L91.1683 85.6697V85.69H91.1548ZM77.0346 68.1482C74.941 66.2375 72.0275 65.3092 68.2468 65.3092H46.267V87.5058H68.3077C72.0614 87.5058 75.0223 86.5302 77.1024 84.5585C79.1892 82.6004 80.2462 79.8088 80.2462 76.2314C80.2123 72.7216 79.1892 70.0047 77.1024 68.1482H77.0075H77.0346ZM73.9788 53.7908C76.0047 52.0902 76.9872 49.6375 76.9872 46.4462C76.9872 42.8823 76.0996 40.3347 74.2973 38.8847C72.5086 37.4347 69.9203 36.6759 66.5325 36.6759H46.1992V56.3113H66.5325C69.4867 56.3181 72.0207 55.4508 73.9788 53.7908Z" fill="#A259FF"/>
</svg>
