<svg width="31" height="32" viewBox="0 0 31 32" fill="none" xmlns="http://www.w3.org/2000/svg">
<path d="M7.39644 6.71068C6.9969 5.69106 7.01288 4.526 7.19027 3.46002C8.41157 3.82596 9.55858 4.40487 10.5784 5.17005C11.0259 5.51206 11.6124 5.62234 12.159 5.45772C13.5615 5.03811 15.0181 4.82702 16.482 4.83124C18.0178 4.83124 19.4769 5.05499 20.8018 5.45613C21.3484 5.62233 21.9349 5.51046 22.3808 5.16846C23.4001 4.40344 24.5466 3.82453 25.7673 3.45842C25.9447 4.5244 25.9591 5.68946 25.5627 6.70749C25.323 7.32118 25.4429 8.02757 25.8952 8.52939C27.0522 9.81272 27.6691 11.2878 27.6691 12.8221C27.6691 16.2006 24.5207 19.5136 19.4642 20.522C18.1984 20.7745 17.7046 22.3679 18.6731 23.2804C19.2948 23.8654 19.6783 24.69 19.6783 25.6074V30.4018C19.6783 30.8257 19.8467 31.2322 20.1464 31.5319C20.4461 31.8316 20.8526 32 21.2765 32C21.7003 32 22.1068 31.8316 22.4065 31.5319C22.7063 31.2322 22.8746 30.8257 22.8746 30.4018V25.6074C22.8746 24.6964 22.6829 23.8302 22.3408 23.0455C27.1625 21.3722 30.8654 17.6054 30.8654 12.8221C30.8654 10.6693 30.0919 8.69081 28.8086 7.03351C29.1442 5.72302 29.1139 4.40294 28.986 3.3897C28.8725 2.48195 28.7143 1.29291 28.0751 0.58333C27.1241 -0.469859 25.55 0.150228 24.4312 0.532189C23.2312 0.938263 22.0894 1.49973 21.0351 2.20227C19.5473 1.82257 18.0175 1.63195 16.482 1.63492C14.8934 1.63492 13.3608 1.83469 11.9256 2.20387C10.8714 1.50131 9.72961 0.939845 8.52953 0.533787C7.41082 0.150228 5.83503 -0.469859 4.88413 0.58333C4.23208 1.3057 4.09623 2.40044 3.97957 3.33057L3.97157 3.3913C3.84372 4.40613 3.81495 5.72781 4.15057 7.0399C2.87204 8.6956 2.09853 10.6709 2.09853 12.8221C2.09853 17.6038 5.80147 21.3722 10.6231 23.0455C10.2741 23.8434 10.0925 24.7045 10.0893 25.5754L9.82085 25.6297C8.67497 25.7879 7.94141 25.6457 7.44278 25.4348C6.22818 24.9201 5.6017 23.624 4.83778 22.6332C4.36153 22.0179 3.66792 21.2492 2.60355 20.8944C2.40438 20.8281 2.1941 20.8016 1.98471 20.8166C1.77532 20.8315 1.57092 20.8875 1.38319 20.9815C1.00406 21.1712 0.715812 21.5038 0.581873 21.906C0.447933 22.3083 0.47927 22.7472 0.668988 23.1264C0.858707 23.5055 1.19127 23.7937 1.59351 23.9277C2.48528 24.2249 3.10217 25.7528 3.66792 26.4304C4.26404 27.1464 5.05673 27.8943 6.19302 28.377C7.28297 28.8404 8.56309 29.005 10.0893 28.8181V30.4018C10.0893 30.8257 10.2577 31.2322 10.5574 31.5319C10.8571 31.8316 11.2636 32 11.6875 32C12.1114 32 12.5179 31.8316 12.8176 31.5319C13.1173 31.2322 13.2857 30.8257 13.2857 30.4018V25.6074C13.2857 24.69 13.6692 23.8654 14.2909 23.2804C15.261 22.3663 14.7656 20.7745 13.4998 20.522C8.44163 19.5136 5.29485 16.2006 5.29485 12.8221C5.29485 11.291 5.91014 9.81591 7.06562 8.53259C7.5179 8.03077 7.63616 7.32438 7.39644 6.71068Z" fill="white"/>
</svg>
