<svg width="33" height="32" viewBox="0 0 33 32" fill="none" xmlns="http://www.w3.org/2000/svg">
<path d="M10.1454 0H23.5854C28.7054 0 32.8654 4.16 32.8654 9.28V22.72C32.8654 25.1812 31.8877 27.5416 30.1474 29.282C28.4071 31.0223 26.0467 32 23.5854 32H10.1454C5.02545 32 0.865448 27.84 0.865448 22.72V9.28C0.865448 6.81879 1.84316 4.45839 3.5835 2.71805C5.32383 0.977712 7.68424 0 10.1454 0ZM9.82545 3.2C8.2978 3.2 6.83272 3.80686 5.75251 4.88707C4.6723 5.96727 4.06545 7.43235 4.06545 8.96V23.04C4.06545 26.224 6.64145 28.8 9.82545 28.8H23.9054C25.4331 28.8 26.8982 28.1931 27.9784 27.1129C29.0586 26.0327 29.6654 24.5676 29.6654 23.04V8.96C29.6654 5.776 27.0894 3.2 23.9054 3.2H9.82545ZM25.2654 5.6C25.7959 5.6 26.3046 5.81071 26.6797 6.18579C27.0547 6.56086 27.2654 7.06957 27.2654 7.6C27.2654 8.13043 27.0547 8.63914 26.6797 9.01421C26.3046 9.38929 25.7959 9.6 25.2654 9.6C24.735 9.6 24.2263 9.38929 23.8512 9.01421C23.4762 8.63914 23.2654 8.13043 23.2654 7.6C23.2654 7.06957 23.4762 6.56086 23.8512 6.18579C24.2263 5.81071 24.735 5.6 25.2654 5.6ZM16.8654 8C18.9872 8 21.022 8.84285 22.5223 10.3431C24.0226 11.8434 24.8654 13.8783 24.8654 16C24.8654 18.1217 24.0226 20.1566 22.5223 21.6569C21.022 23.1571 18.9872 24 16.8654 24C14.7437 24 12.7089 23.1571 11.2086 21.6569C9.7083 20.1566 8.86545 18.1217 8.86545 16C8.86545 13.8783 9.7083 11.8434 11.2086 10.3431C12.7089 8.84285 14.7437 8 16.8654 8ZM16.8654 11.2C15.5924 11.2 14.3715 11.7057 13.4713 12.6059C12.5712 13.5061 12.0654 14.727 12.0654 16C12.0654 17.273 12.5712 18.4939 13.4713 19.3941C14.3715 20.2943 15.5924 20.8 16.8654 20.8C18.1385 20.8 19.3594 20.2943 20.2596 19.3941C21.1597 18.4939 21.6654 17.273 21.6654 16C21.6654 14.727 21.1597 13.5061 20.2596 12.6059C19.3594 11.7057 18.1385 11.2 16.8654 11.2Z" fill="white"/>
</svg>
