<svg width="123" height="122" viewBox="0 0 123 122" fill="none" xmlns="http://www.w3.org/2000/svg">
<path d="M0.0999756 0H122.1V122H0.0999756V0ZM112.106 92.903C111.217 87.3367 107.592 82.6601 96.8409 78.2986C93.0996 76.5448 88.9414 75.3248 87.7061 72.5036C87.2436 70.8261 87.1724 69.9111 87.4723 68.9198C88.2348 65.636 92.1236 64.6498 95.1736 65.5648C97.1561 66.1748 98.9861 67.6998 100.135 70.1398C105.391 66.7035 105.391 66.7035 109.056 64.4211C107.684 62.2861 107.002 61.366 106.077 60.4561C102.875 56.8723 98.6099 55.0423 91.6711 55.1999L88.0874 55.6523C84.6511 56.4911 81.3774 58.3211 79.3949 60.7611C73.5999 67.3237 75.2723 78.7612 82.2873 83.4887C89.2261 88.6737 99.3724 89.8123 100.669 94.6974C101.889 100.645 96.2461 102.551 90.6748 101.865C86.5522 100.95 84.2698 98.8861 81.7536 95.0736L72.4511 100.416C73.5186 102.856 74.7386 103.919 76.5686 106.054C85.4136 114.98 107.526 114.522 111.496 100.95C111.644 100.492 112.716 97.3662 111.872 92.5624L112.106 92.903ZM66.4426 56.0743H55.0152C55.0152 65.9258 54.9695 75.7163 54.9695 85.583C54.9695 91.8457 55.2897 97.5949 54.268 99.3639C52.5905 102.866 48.2696 102.419 46.3075 101.804C44.2945 100.808 43.2727 99.4351 42.0883 97.4577C41.7681 96.9239 41.5291 96.4613 41.4427 96.4613L32.1656 102.18C33.7161 105.383 35.9781 108.138 38.896 109.892C43.2422 112.484 49.083 113.323 55.1982 111.95C59.1785 110.801 62.6097 108.438 64.4041 104.778C66.9966 100.05 66.4476 94.2552 66.4222 87.7688C66.4832 77.3277 66.4222 66.8814 66.4222 56.3589L66.4426 56.0743Z" fill="#A259FF"/>
</svg>
