<svg width="35" height="32" viewBox="0 0 35 32" fill="none" xmlns="http://www.w3.org/2000/svg">
<path d="M7.63536 3.55714C7.63489 4.50008 7.25856 5.40421 6.58915 6.07063C5.91975 6.73706 5.01211 7.11119 4.0659 7.11072C3.11969 7.11025 2.21242 6.73521 1.54369 6.06812C0.874953 5.40103 0.499527 4.49652 0.5 3.55358C0.500474 2.61064 0.876807 1.70651 1.54621 1.04008C2.21562 0.373658 3.12326 -0.000471025 4.06947 4.45062e-07C5.01567 0.000471915 5.92294 0.375505 6.59167 1.0426C7.26041 1.70969 7.63584 2.6142 7.63536 3.55714ZM7.74239 9.74346H0.607031V32H7.74239V9.74346ZM19.0163 9.74346H11.9166V32H18.9449V20.3207C18.9449 13.8143 27.4538 13.2099 27.4538 20.3207V32H34.5V17.903C34.5 6.93473 21.9061 7.34359 18.9449 12.73L19.0163 9.74346Z" fill="white"/>
</svg>
